<svg xmlns="http://www.w3.org/2000/svg" version="1.1" xmlns:xlink="http://www.w3.org/1999/xlink" xmlns:svgjs="http://svgjs.com/svgjs" width="20480" height="20480"><svg xmlns="http://www.w3.org/2000/svg" viewBox="0 0 20480 20480"><g id="SvgjsG1010" fill="rgb(235,70,70)" style="transform: none;"><g><path id="SvgjsPath1009" d="M8465 16899 c-350 -51 -683 -266 -809 -523 -19 -39 -48 -111 -63 -161 l-28 -90 0 -665 c0 -659 0 -666 23 -744 83 -296 323 -540 631 -645 398 -136 816 -89 1116 124 77 55 188 171 247 260 49 74 105 182 97 188 -2 2 -133 56 -291 120 -259 104 -288 114 -293 97 -10 -33 -115 -128 -168 -154 -198 -96 -446 -68 -579 65 -80 80 -79 73 -76 700 3 517 4 546 23 584 66 133 267 218 445 187 137 -23 260 -102 311 -196 13 -25 27 -46 31 -46 11 0 592 270 602 280 13 13 -72 150 -144 233 -185 211 -403 336 -668 382 -92 16 -309 18 -407 4z"></path><path id="SvgjsPath1008" d="M16609 16890 c-263 -55 -547 -232 -717 -447 l-32 -41 223 -209 223 -210 72 67 c51 48 99 81 164 114 136 67 197 80 363 81 131 0 144 -2 195 -26 127 -61 177 -173 122 -274 -45 -84 -198 -152 -452 -200 -238 -46 -396 -109 -542 -217 -221 -164 -324 -350 -343 -619 -22 -298 100 -555 339 -718 122 -84 303 -155 466 -182 100 -17 334 -17 440 0 188 31 376 112 535 231 89 67 200 178 200 200 0 6 -101 88 -225 184 l-225 173 -35 -32 c-56 -49 -124 -93 -203 -131 -285 -135 -587 -42 -587 181 0 60 20 105 64 146 78 71 162 104 370 149 288 61 450 122 606 225 178 119 284 315 310 574 27 267 -39 463 -219 653 -133 141 -270 223 -476 287 -199 61 -460 79 -636 41z"></path><path id="SvgjsPath1007" d="M2680 15449 l0 -1420 663 4 c430 3 683 8 722 16 273 51 472 154 606 314 147 175 220 461 191 754 -29 295 -127 508 -295 644 -56 45 -180 112 -232 125 -14 3 -25 10 -23 14 2 5 173 222 380 484 208 261 378 477 378 480 0 3 -198 6 -439 6 l-439 0 -328 -450 -328 -450 -68 0 -68 0 0 450 0 450 -360 0 -360 0 0 -1421z m1292 -118 c67 -26 137 -92 168 -158 78 -166 16 -356 -145 -441 l-50 -27 -272 -3 -273 -3 0 332 0 331 258 -4 c236 -4 262 -6 314 -27z"></path><path id="SvgjsPath1006" d="M5280 15450 l0 -1420 990 0 990 0 0 335 0 335 -630 0 -630 0 0 225 0 225 575 0 575 0 0 310 0 310 -575 0 -575 0 0 215 0 215 630 0 630 0 0 335 0 335 -990 0 -990 0 0 -1420z"></path><path id="SvgjsPath1005" d="M9970 15450 l0 -1420 355 0 355 0 0 1420 0 1420 -355 0 -355 0 0 -1420z"></path><path id="SvgjsPath1004" d="M11140 15449 l0 -1420 658 4 c552 3 668 7 727 20 217 49 368 130 501 268 124 129 206 271 252 437 24 89 27 112 27 277 0 169 -2 186 -29 280 -65 224 -193 412 -371 543 -73 54 -138 87 -230 119 -147 51 -183 55 -512 60 l-313 5 0 414 0 414 -355 0 -355 0 0 -1421z m1273 -66 c26 -12 70 -45 97 -73 69 -70 94 -153 88 -283 -6 -120 -31 -180 -105 -247 -81 -74 -109 -80 -400 -80 l-243 0 0 356 0 355 258 -3 c240 -3 260 -4 305 -25z"></path><path id="SvgjsPath1003" d="M13630 15450 l0 -1420 985 0 985 0 0 335 0 335 -625 0 -625 0 0 225 0 225 575 0 575 0 0 310 0 310 -575 0 -575 0 0 215 0 215 625 0 625 0 0 335 0 335 -985 0 -985 0 0 -1420z"></path><path id="SvgjsPath1002" d="M2330 7855 l0 -4665 3605 0 3605 0 0 1105 0 1105 -2285 0 -2285 0 0 730 0 730 2105 0 2105 0 0 1015 0 1015 -2105 0 -2105 0 0 705 0 705 2285 0 2285 0 0 1110 0 1110 -3605 0 -3605 0 0 -4665z"></path></g></g><g id="SvgjsG1001" fill="rgb(235,125,70)" style="transform: none;"><g><path id="SvgjsPath1000" d="M10758 12432 c-77 -141 -122 -222 -280 -505 l-149 -268 347 -487 c191 -268 386 -541 434 -607 48 -66 671 -939 1385 -1940 715 -1001 1528 -2140 1807 -2531 279 -391 508 -714 508 -717 0 -4 -936 -7 -2080 -7 l-2080 0 0 -1090 0 -1090 3771 2 3771 3 274 390 c151 214 273 394 270 400 -2 6 -125 184 -273 395 -252 360 -409 585 -1390 1990 -420 601 -1116 1598 -1187 1700 -25 36 -192 274 -370 530 -179 256 -347 497 -374 535 -101 144 -634 907 -746 1068 -64 92 -116 170 -116 174 0 6 1673 -1 3360 -14 l855 -6 -3 1081 -2 1082 -3843 0 -3842 0 -47 -88z"></path></g></g></svg><style>@media (prefers-color-scheme: light) { :root { filter: none; } }
</style></svg>