<svg xmlns="http://www.w3.org/2000/svg" viewBox="0 0 10240 10240"><g id="lle24OuOFoWigfnoTxQIGV" fill="rgb(235,125,70)" style="transform: none;"><g><path id="p15Kxim0uw" d="M5050 8499 c-56 -11 -80 -35 -91 -90 -14 -72 -11 -1134 3 -1183 7 -22 615 -1058 1351 -2301 737 -1243 1342 -2263 1344 -2268 2 -4 -577 -7 -1287 -7 -1269 1 -1292 1 -1323 -19 -18 -11 -41 -35 -52 -53 -19 -32 -20 -51 -20 -573 0 -601 -2 -584 68 -622 30 -17 144 -18 1997 -24 1198 -4 1982 -3 2010 3 50 10 74 28 99 73 14 27 16 91 16 625 l0 595 -1344 2265 c-739 1246 -1346 2271 -1348 2278 -4 10 248 12 1296 12 1438 -1 1341 -5 1378 63 16 29 18 77 21 544 2 334 -1 532 -8 570 -13 73 -38 99 -109 113 -67 13 -3935 12 -4001 -1z"></path></g></g><g id="lwief8owMWUcgmwtLXolIG" fill="rgb(235,70,70)" style="transform: none;"><g><path id="pesN7n8o6" d="M1223 8509 c-26 -7 -34 -17 -43 -47 -14 -52 -14 -6982 0 -7034 9 -31 17 -39 48 -48 51 -14 3113 -14 3164 0 31 9 39 17 48 48 14 50 14 1134 0 1184 -9 31 -17 39 -48 48 -24 6 -363 10 -979 10 l-943 0 0 655 0 655 763 1 c816 0 825 1 838 49 12 42 10 1150 -1 1192 -9 31 -17 39 -48 48 -24 6 -305 10 -794 10 l-758 0 0 970 0 970 943 0 c616 0 955 4 979 10 31 9 39 17 48 48 14 50 14 1134 0 1184 -9 31 -17 39 -48 48 -48 13 -3123 12 -3169 -1z"></path></g></g></svg>