<?xml version="1.0" standalone="no"?>
<!DOCTYPE svg PUBLIC "-//W3C//DTD SVG 20010904//EN"
 "http://www.w3.org/TR/2001/REC-SVG-20010904/DTD/svg10.dtd">
<svg version="1.0" xmlns="http://www.w3.org/2000/svg"
 width="1024.000000pt" height="1024.000000pt" viewBox="0 0 1024.000000 1024.000000"
 preserveAspectRatio="xMidYMid meet">
<metadata>
Created by potrace 1.14, written by Peter Selinger 2001-2017
</metadata>
<g transform="translate(0.000000,1024.000000) scale(0.100000,-0.100000)"
fill="#000000" stroke="none">
<path d="M5406 8883 c-1 -1 -78 -3 -170 -3 -168 -2 -189 -6 -226 -40 -39 -37
-40 -55 -40 -608 1 -529 1 -536 22 -574 14 -24 37 -45 63 -58 41 -20 55 -20
1326 -15 706 3 1279 2 1273 -3 -6 -4 -18 -20 -27 -37 -8 -16 -76 -133 -151
-258 -75 -126 -136 -233 -136 -238 0 -5 -4 -9 -10 -9 -5 0 -10 -5 -10 -10 0
-6 -17 -39 -39 -73 -21 -34 -64 -107 -96 -162 -32 -55 -68 -116 -80 -135 -13
-19 -53 -87 -90 -150 -38 -63 -140 -236 -228 -385 -88 -148 -165 -279 -171
-290 -14 -24 -73 -124 -101 -170 -11 -18 -54 -90 -95 -159 -41 -70 -82 -139
-91 -154 -29 -47 -201 -338 -377 -637 -94 -159 -176 -295 -181 -302 -6 -7 -11
-14 -11 -17 0 -9 -105 -181 -112 -184 -5 -2 -8 -8 -8 -13 0 -6 -79 -144 -177
-307 -195 -329 -181 -306 -278 -469 -38 -65 -95 -161 -126 -213 -31 -52 -67
-113 -80 -135 l-24 -40 -2 -608 c-3 -508 -1 -613 11 -635 32 -61 -118 -57
2095 -57 l2026 0 32 23 c20 14 36 37 43 60 14 53 13 1099 -2 1138 -6 16 -25
40 -42 54 l-30 25 -1309 -3 -1309 -2 23 37 c12 21 31 50 41 65 10 14 18 29 18
32 0 3 24 45 54 93 111 181 276 465 276 474 0 5 4 9 9 9 5 0 11 8 14 18 6 17
37 73 47 82 3 3 11 16 18 30 7 14 21 39 32 55 11 17 25 41 30 55 6 13 15 27
19 30 4 3 19 25 33 50 26 47 142 244 158 270 48 77 120 203 120 210 0 6 4 10
8 10 5 0 19 22 32 50 13 28 27 50 31 50 3 0 9 8 12 18 4 9 20 40 37 67 17 28
33 58 37 68 3 9 9 17 13 17 4 0 10 8 14 18 3 9 14 31 23 47 10 17 72 120 137
230 65 110 139 233 163 274 25 41 53 88 63 105 9 17 97 166 195 331 209 352
191 321 282 477 40 68 77 128 82 135 6 7 11 15 11 17 0 3 32 58 70 122 39 64
70 117 70 119 0 2 22 39 48 82 27 43 52 85 55 93 4 8 15 27 25 42 17 26 101
168 191 321 58 99 64 110 142 237 l64 105 0 610 0 610 -23 33 c-49 68 96 64
-1915 60 -1000 -2 -1820 -4 -1821 -5z"/>
<path d="M1196 8849 l-26 -20 0 -3529 c0 -3460 0 -3528 19 -3551 l19 -24 1595
-3 1594 -2 26 20 26 21 1 606 0 606 -22 24 -21 23 -969 0 -968 0 0 970 0 970
775 0 c426 0 778 0 783 1 4 0 17 10 29 21 l22 21 0 606 c1 527 -1 609 -15 626
-15 20 -28 20 -804 23 l-790 2 0 655 0 655 969 0 970 0 20 27 c21 26 21 32 21
629 l-1 603 -26 21 c-26 20 -28 20 -1613 20 l-1587 0 -27 -21z"/>
</g>
</svg>
